<!-- Generated by IcoMoon.io -->
<svg version="1.1" xmlns="http://www.w3.org/2000/svg" width="29" height="32" viewBox="0 0 29 32">
<title>calender</title>
<path  d="M22.4 14.4h-3.2v3.2h3.2v-3.2z"></path>
<path  d="M16 14.4h-3.2v3.2h3.2v-3.2z"></path>
<path  d="M9.6 14.4h-3.2v3.2h3.2v-3.2z"></path>
<path  d="M25.6 3.2h-1.6v-3.2h-3.2v3.2h-12.8v-3.2h-3.2v3.2h-1.6c-1.776 0-3.184 1.44-3.184 3.2l-0.016 22.4c0 1.76 1.424 3.2 3.2 3.2h22.4c1.76 0 3.2-1.44 3.2-3.2v-22.4c0-1.76-1.44-3.2-3.2-3.2zM25.6 28.8h-22.4v-17.6h22.4v17.6z"></path>
</svg>
